HIERARCHY
ROOT Hips
{
	OFFSET 0.000000 0.000000 0.000000 
	CHANNELS 6 Xposition Yposition Zposition Zrotation Yrotation Xrotation
	JOINT LeftUpLeg
	{
		OFFSET 1.363060 -1.794630 0.839290 
		CHANNELS 3 Zrotation Yrotation Xrotation
		JOINT LeftLeg
		{
			OFFSET 2.448110 -6.726130 0.000000 
			CHANNELS 3 Zrotation Yrotation Xrotation
			JOINT LeftFoot
			{
				OFFSET 2.562200 -7.039590 0.000000 
				CHANNELS 3 Zrotation Yrotation Xrotation
				JOINT LeftToeBase
				{
					OFFSET 0.157640 -0.433110 2.322550 
					CHANNELS 3 Zrotation Yrotation Xrotation
					End Site
					{
						OFFSET 0.000000 0.000000 0.000000 
					}
				}
			}
		}
	}
	JOINT RightUpLeg
	{
		OFFSET -1.305520 -1.794630 0.839290 
		CHANNELS 3 Zrotation Yrotation Xrotation
		JOINT RightLeg
		{
			OFFSET -2.542530 -6.985550 0.000000 
			CHANNELS 3 Zrotation Yrotation Xrotation
			JOINT RightFoot
			{
				OFFSET -2.568260 -7.056230 0.000000 
				CHANNELS 3 Zrotation Yrotation Xrotation
				JOINT RightToeBase
				{
					OFFSET -0.164730 -0.452590 2.363150 
					CHANNELS 3 Zrotation Yrotation Xrotation
					End Site
					{
						OFFSET 0.000000 0.000000 0.000000 
					}
				}
			}
		}
	}
	JOINT Spine
	{
		OFFSET 0.028270 2.035590 -0.193380 
		CHANNELS 3 Zrotation Yrotation Xrotation
		JOINT Spine1
		{
			OFFSET 0.056720 2.048850 -0.042750 
			CHANNELS 3 Zrotation Yrotation Xrotation
			JOINT Neck1
			{
				OFFSET -0.054170 1.746240 0.172020 
				CHANNELS 3 Zrotation Yrotation Xrotation
				JOINT Head
				{
					OFFSET 0.104070 1.761360 -0.123970 
					CHANNELS 3 Zrotation Yrotation Xrotation
					End Site
					{
						OFFSET 0.000000 0.000000 0.000000 
					}
				}
			}
			JOINT LeftArm
			{
				OFFSET 3.362410 1.200890 -0.311210 
				CHANNELS 3 Zrotation Yrotation Xrotation
				JOINT LeftForeArm
				{
					OFFSET 4.983000 -0.000000 -0.000000 
					CHANNELS 3 Zrotation Yrotation Xrotation
					JOINT LeftHand
					{
						OFFSET 3.483560 -0.000000 -0.000000 
						CHANNELS 3 Zrotation Yrotation Xrotation
						JOINT LeftHandIndex1
						{
							OFFSET 0.715260 -0.000000 -0.000000 
							CHANNELS 3 Zrotation Yrotation Xrotation
							End Site
							{
								OFFSET 0.000000 0.000000 0.000000 
							}
						}
					}
				}
			}
			JOINT RightArm
			{
				OFFSET -3.136600 1.374050 -0.404650 
				CHANNELS 3 Zrotation Yrotation Xrotation
				JOINT RightForeArm
				{
					OFFSET -5.241900 -0.000000 -0.000000 
					CHANNELS 3 Zrotation Yrotation Xrotation
					JOINT RightHand
					{
						OFFSET -3.444170 -0.000000 -0.000000 
						CHANNELS 3 Zrotation Yrotation Xrotation
						JOINT RightHandIndex1
						{
							OFFSET -0.622530 -0.000000 -0.000000 
							CHANNELS 3 Zrotation Yrotation Xrotation
							End Site
							{
								OFFSET 0.000000 0.000000 0.000000 
							}
						}
					}
				}
			}
		}
	}
}
MOTION
Frames: 15
Frame Time: 0.041667
-6.140584 17.572332 37.323774 -118.333138 -83.698801 131.974784 -9.986749 5.357634 -22.369231 -1.526627 7.338437 18.303516 3.948074 -11.410047 7.667226 0.327800 -3.679700 -10.177300 27.503041 -17.053071 -21.656857 1.246148 -5.950631 13.894178 -3.859242 25.402644 9.687608 -0.021700 -0.950600 2.613000 -0.139343 5.473152 -7.866190 -5.680012 0.269967 -22.870264 5.543847 -2.653372 7.110074 15.584700 -1.551100 4.147700 33.924023 12.036313 -47.723180 11.698259 -15.879187 -2.181968 -4.853376 -0.229337 -23.855612 -7.125000 0.000000 0.000000 -43.201736 -9.725929 -73.961842 -8.579611 14.640112 -1.575058 2.132953 2.150297 30.944598 7.125000 0.000000 0.000000 
-6.143722 17.572765 37.327019 -118.332143 -83.709291 131.999848 -10.015826 5.396301 -22.404963 -1.528051 7.336688 18.299537 3.959233 -11.474372 7.687296 0.321900 -3.646900 -10.085200 27.487344 -17.056198 -21.672584 1.246976 -5.944329 13.880507 -3.860353 25.400238 9.691660 -0.021200 -0.940100 2.584100 -0.138339 5.480093 -7.868945 -5.685217 0.273028 -22.867002 5.549215 -2.665881 7.144776 15.583500 -1.568400 4.178200 33.817599 12.094291 -47.760302 11.682763 -15.824018 -2.179411 -4.878513 -0.205972 -23.846953 -7.125000 0.000000 0.000000 -43.117309 -9.812738 -73.836739 -8.598663 14.602259 -1.574041 2.149639 2.134922 30.901165 7.125000 0.000000 0.000000 
-6.147076 17.573306 37.330481 -118.308302 -83.721371 132.000983 -10.045827 5.436732 -22.441913 -1.529471 7.334876 18.295631 3.971042 -11.542611 7.709317 0.315400 -3.610300 -9.982800 27.474007 -17.066777 -21.693058 1.247451 -5.938448 13.867796 -3.861007 25.404422 9.694245 -0.020700 -0.929900 2.555900 -0.133739 5.477172 -7.872821 -5.666172 0.277158 -22.868364 5.551298 -2.669954 7.172675 15.584500 -1.580600 4.200600 33.696251 12.162481 -47.778154 11.668807 -15.763858 -2.178336 -4.906364 -0.177545 -23.837159 -7.125000 0.000000 0.000000 -43.049189 -9.886671 -73.745305 -8.611332 14.567798 -1.571982 2.162596 2.122466 30.878675 7.125000 0.000000 0.000000 
-6.150538 17.573847 37.334052 -118.290598 -83.733681 132.011922 -10.076319 5.477988 -22.479832 -1.531138 7.332492 18.290453 3.983025 -11.612556 7.734069 0.308500 -3.571100 -9.873100 27.458957 -17.070896 -21.712313 1.247931 -5.933181 13.856331 -3.862165 25.403801 9.693789 -0.020300 -0.919000 2.526100 -0.126162 5.464975 -7.878052 -5.629843 0.281148 -22.874922 5.554421 -2.667568 7.193980 15.589100 -1.588900 4.215500 33.565039 12.243190 -47.763587 11.659195 -15.702313 -2.180926 -4.922659 -0.165538 -23.839610 -7.125000 0.000000 0.000000 -42.991745 -9.947065 -73.680983 -8.617970 14.535974 -1.569132 2.173662 2.111058 30.866479 7.125000 0.000000 0.000000 
-6.154217 17.574604 37.337947 -118.280888 -83.748490 132.029965 -10.110325 5.518664 -22.517253 -1.533169 7.329993 18.284270 3.994762 -11.682110 7.757741 0.302000 -3.533200 -9.766900 27.440444 -17.077761 -21.733602 1.248287 -5.928128 13.846653 -3.862960 25.406532 9.698864 -0.020000 -0.913300 2.510200 -0.118474 5.450082 -7.883119 -5.597390 0.282642 -22.879509 5.559954 -2.672556 7.205545 15.593000 -1.598500 4.226400 33.435811 12.327694 -47.745952 11.652101 -15.644257 -2.184411 -4.938443 -0.154404 -23.838548 -7.125000 0.000000 0.000000 -42.928817 -10.009133 -73.601047 -8.625408 14.502451 -1.566808 2.183351 2.099382 30.837257 7.125000 0.000000 0.000000 
-6.158112 17.575253 37.342058 -118.257404 -83.762428 132.035879 -10.144563 5.559958 -22.555638 -1.535247 7.327197 18.277298 4.006352 -11.751055 7.780516 0.296100 -3.498900 -9.670900 27.421726 -17.081646 -21.754700 1.248687 -5.923143 13.836929 -3.864078 25.405613 9.704276 -0.019800 -0.907800 2.495100 -0.113474 5.442133 -7.888288 -5.580892 0.281751 -22.885068 5.568007 -2.694022 7.208153 15.594800 -1.614200 4.236200 33.315263 12.400461 -47.755132 11.642274 -15.590622 -2.187819 -4.943919 -0.157473 -23.822554 -7.125000 0.000000 0.000000 -42.854447 -10.081182 -73.476949 -8.641041 14.469209 -1.566441 2.191707 2.093230 30.772100 7.125000 0.000000 0.000000 
-6.162115 17.575903 37.346169 -118.218898 -83.775555 132.027889 -10.179024 5.602801 -22.594315 -1.537230 7.324400 18.270288 4.018252 -11.822216 7.802702 0.290500 -3.466100 -9.579300 27.404174 -17.091623 -21.778259 1.249294 -5.917586 13.827023 -3.864057 25.411332 9.724738 -0.020000 -0.913800 2.511600 -0.112224 5.445875 -7.892935 -5.583396 0.280566 -22.888247 5.579216 -2.734070 7.205286 15.595800 -1.637900 4.247800 33.198359 12.460115 -47.789958 11.631090 -15.543169 -2.191902 -4.943948 -0.168282 -23.810105 -7.125000 0.000000 0.000000 -42.769788 -10.166647 -73.322145 -8.666142 14.438237 -1.568933 2.199587 2.089129 30.692699 7.125000 0.000000 0.000000 
-6.166334 17.576660 37.350389 -118.162688 -83.787962 132.000784 -10.211857 5.642632 -22.632568 -1.539283 7.321557 18.263557 4.030296 -11.894517 7.828393 0.284000 -3.427200 -9.470600 27.384745 -17.093410 -21.796935 1.250265 -5.911521 13.815174 -3.864756 25.406406 9.744872 -0.020200 -0.918100 2.523400 -0.113634 5.458966 -7.897837 -5.602558 0.278409 -22.893386 5.594705 -2.785384 7.199119 15.595700 -1.666500 4.259400 33.089996 12.506873 -47.837780 11.618903 -15.501492 -2.194541 -4.954218 -0.161788 -23.800705 -7.125000 0.000000 0.000000 -42.675015 -10.260019 -73.158695 -8.695424 14.406660 -1.572700 2.207311 2.087216 30.616737 7.125000 0.000000 0.000000 
-6.170446 17.577309 37.354717 -118.072734 -83.800006 131.940684 -10.244654 5.685662 -22.672718 -1.541167 7.318497 18.257234 4.043515 -11.974132 7.857291 0.277300 -3.387000 -9.358200 27.367800 -17.097558 -21.816155 1.251296 -5.904966 13.801944 -3.865646 25.399913 9.761792 -0.020200 -0.916600 2.519400 -0.116179 5.475797 -7.902813 -5.635580 0.273654 -22.899483 5.606005 -2.835318 7.191989 15.586600 -1.693900 4.268900 32.989865 12.547820 -47.888212 11.607270 -15.464096 -2.195703 -4.975070 -0.140126 -23.796017 -7.125000 0.000000 0.000000 -42.568747 -10.357644 -73.006186 -8.725393 14.372620 -1.577239 2.213616 2.091600 30.556427 7.125000 0.000000 0.000000 
-6.174557 17.577958 37.359153 -117.973943 -83.813298 131.868550 -10.277548 5.726118 -22.711786 -1.543013 7.315940 18.252196 4.056192 -12.051954 7.884489 0.272100 -3.355400 -9.269800 27.346498 -17.089216 -21.825471 1.252853 -5.897323 13.784953 -3.867858 25.375187 9.773123 -0.019900 -0.911000 2.503800 -0.115144 5.481079 -7.908506 -5.659581 0.266077 -22.908842 5.614695 -2.860283 7.189036 15.575300 -1.709900 4.272500 32.887958 12.603514 -47.894181 11.600676 -15.424597 -2.197333 -5.003416 -0.109919 -23.806530 -7.125000 0.000000 0.000000 -42.464101 -10.440656 -72.915389 -8.744451 14.336932 -1.580266 2.221028 2.089447 30.539117 7.125000 0.000000 0.000000 
-6.178776 17.578607 37.363588 -117.876928 -83.827234 131.799635 -10.311040 5.768091 -22.750365 -1.544643 7.313666 18.247747 4.068876 -12.129908 7.909818 0.268100 -3.330900 -9.201300 27.323328 -17.075684 -21.829334 1.254674 -5.888899 13.765624 -3.870704 25.342321 9.781712 -0.019600 -0.903400 2.483100 -0.110410 5.475755 -7.913789 -5.664775 0.259370 -22.915601 5.619093 -2.864521 7.189826 15.563100 -1.716000 4.273300 32.775003 12.673177 -47.882174 11.595307 -15.379185 -2.200435 -5.028021 -0.083413 -23.806567 -7.125000 0.000000 0.000000 -42.368619 -10.514608 -72.879960 -8.753940 14.299836 -1.581606 2.226454 2.084274 30.560978 7.125000 0.000000 0.000000 
-6.182780 17.579257 37.368133 -117.756866 -83.838817 131.704824 -10.341340 5.808691 -22.787857 -1.546017 7.311329 18.243961 4.081452 -12.206500 7.934276 0.264900 -3.311000 -9.145700 27.299805 -17.045953 -21.822450 1.256973 -5.880423 13.743614 -3.875482 25.287014 9.770953 -0.018600 -0.881600 2.423100 -0.103531 5.464756 -7.918723 -5.656628 0.253394 -22.920558 5.617916 -2.857365 7.190050 15.549500 -1.716300 4.271000 32.651809 12.750505 -47.857638 11.588731 -15.327025 -2.204350 -5.043018 -0.072990 -23.795624 -7.125000 0.000000 0.000000 -42.283066 -10.584478 -72.879315 -8.758028 14.262858 -1.581466 2.230704 2.077539 30.602409 7.125000 0.000000 0.000000 
-6.186891 17.579906 37.372785 -117.649610 -83.852132 131.622300 -10.373994 5.847277 -22.822741 -1.547494 7.309712 18.240889 4.093337 -12.281384 7.955574 0.262000 -3.293100 -9.095800 27.271723 -17.012875 -21.810626 1.259215 -5.871547 13.720841 -3.880834 25.225819 9.757513 -0.017600 -0.856800 2.355000 -0.097291 5.456907 -7.922716 -5.641269 0.250337 -22.923345 5.609535 -2.857455 7.180892 15.531600 -1.718100 4.264900 32.522927 12.820954 -47.839487 11.576163 -15.268881 -2.206339 -5.056296 -0.069935 -23.772823 -7.125000 0.000000 0.000000 -42.204018 -10.662179 -72.874247 -8.763844 14.225860 -1.580975 2.232755 2.072605 30.638185 7.125000 0.000000 0.000000 
-6.190894 17.580447 37.377329 -117.517395 -83.862866 131.511895 -10.406450 5.895887 -22.860500 -1.548341 7.307628 18.238460 4.107266 -12.367110 7.977551 0.259000 -3.274100 -9.042700 27.247512 -16.980406 -21.796891 1.261093 -5.863371 13.698746 -3.886570 25.162682 9.730392 -0.016200 -0.820600 2.255300 -0.091937 5.454694 -7.926868 -5.623080 0.249354 -22.930187 5.595213 -2.867362 7.163938 15.508800 -1.723400 4.255600 32.392133 12.877670 -47.838863 11.558229 -15.208451 -2.205608 -5.080415 -0.055998 -23.739868 -7.125000 0.000000 0.000000 -42.127978 -10.746987 -72.851027 -8.775332 14.192243 -1.581723 2.232017 2.072114 30.654932 7.125000 0.000000 0.000000 
-6.194789 17.580879 37.381981 -117.375231 -83.875100 131.390612 -10.440315 5.943992 -22.895639 -1.549338 7.305438 18.235541 4.121189 -12.454590 7.998009 0.255200 -3.250600 -8.977200 27.223781 -16.957555 -21.786523 1.262390 -5.856227 13.679732 -3.891724 25.108880 9.702418 -0.014800 -0.784800 2.156800 -0.086890 5.452964 -7.931315 -5.604302 0.247325 -22.943985 5.578113 -2.889643 7.132012 15.481800 -1.732200 4.238900 32.263672 12.924101 -47.844430 11.538289 -15.149636 -2.203222 -5.112684 -0.034984 -23.719598 -7.125000 0.000000 0.000000 -42.050173 -10.832567 -72.827142 -8.787763 14.159287 -1.583079 2.230963 2.070695 30.663571 7.125000 0.000000 0.000000 
